<svg xmlns="http://www.w3.org/2000/svg" viewBox="0 0 16 16" width="16" height="16" shape-rendering="crispEdges" role="img" aria-label="Turboslide"><style>.p{fill:#ffffff}.f{fill:none;stroke:#656565}.m{fill:#070707}@media (prefers-color-scheme: dark){.p{fill:#070707}.f{stroke:#888887}.m{fill:#f2f2f0}}</style><rect class="p" width="16" height="16"/><rect class="f" x=".5" y=".5" width="15" height="15"/><path class="m" d="M4 2h10v1h-10zM4 3h10v1h-10zM4 4h10v1h-10zM8 5h3v1h-3zM8 6h3v1h-3zM2 7h5v1h-5zM8 7h3v1h-3zM2 9h4v1h-4zM7 9h3v1h-3zM7 10h3v1h-3zM7 11h3v1h-3zM2 12h3v1h-3zM6 12h3v1h-3zM2 13h3v1h-3zM6 13h3v1h-3z"/></svg>
