<svg xmlns="http://www.w3.org/2000/svg" viewBox="0 0 180 180" width="180" height="180" role="img" aria-label="Turboslide"><rect width="180" height="180" fill="#070707"/><path fill="#f2f2f0" transform="matrix(0.63333 0 0 0.63333 52.50158 26.66667)" d="M13.5 40L147.5 40L141.1 70L7.1 70ZM63.5 40L97.5 40L85.6 96L51.6 96ZM49.9 104L83.9 104L72 160L38 160ZM-8.5 40L15.5 40L9.1 70L-14.9 70ZM-21.4 82L42.6 82L39.6 96L-24.4 96ZM-26.1 104L37.9 104L34.9 118L-29.1 118ZM-11.6 130L32.4 130L26 160L-18 160Z"/></svg>
